<mxfile host="app.diagrams.net" agent="Mozilla/5.0 (Windows NT 10.0; Win64; x64; rv:132.0) Gecko/20100101 Firefox/132.0" version="24.8.6">
  <diagram name="Página-1" id="HAxk9lvWDfS05fTYWl_q">
    <mxGraphModel dx="1035" dy="553" grid="1" gridSize="10" guides="1" tooltips="1" connect="1" arrows="1" fold="1" page="1" pageScale="1" pageWidth="827" pageHeight="1169" math="0" shadow="0">
      <root>
        <mxCell id="0" />
        <mxCell id="1" parent="0" />
        <mxCell id="UZev7EF_9bcKUdjiLRx3-1" value="Aluno" style="rounded=1;whiteSpace=wrap;html=1;" parent="1" vertex="1">
          <mxGeometry x="468" y="429" width="120" height="60" as="geometry" />
        </mxCell>
        <mxCell id="UZev7EF_9bcKUdjiLRx3-2" value="Consulta" style="rhombus;whiteSpace=wrap;html=1;" parent="1" vertex="1">
          <mxGeometry x="642" y="419" width="80" height="80" as="geometry" />
        </mxCell>
        <mxCell id="UZev7EF_9bcKUdjiLRx3-3" value="Bolsas" style="rounded=1;whiteSpace=wrap;html=1;" parent="1" vertex="1">
          <mxGeometry x="779" y="429" width="120" height="60" as="geometry" />
        </mxCell>
        <mxCell id="UZev7EF_9bcKUdjiLRx3-4" value="Cadastra" style="rhombus;whiteSpace=wrap;html=1;" parent="1" vertex="1">
          <mxGeometry x="799" y="299" width="80" height="80" as="geometry" />
        </mxCell>
        <mxCell id="LGmtJFAplZEheYw9YoZS-16" style="rounded=0;orthogonalLoop=1;jettySize=auto;html=1;exitX=1;exitY=0.5;exitDx=0;exitDy=0;entryX=0;entryY=0.5;entryDx=0;entryDy=0;endArrow=none;endFill=0;" parent="1" source="UZev7EF_9bcKUdjiLRx3-5" target="LGmtJFAplZEheYw9YoZS-14" edge="1">
          <mxGeometry relative="1" as="geometry" />
        </mxCell>
        <mxCell id="LGmtJFAplZEheYw9YoZS-27" value="1" style="edgeLabel;html=1;align=center;verticalAlign=middle;resizable=0;points=[];" parent="LGmtJFAplZEheYw9YoZS-16" vertex="1" connectable="0">
          <mxGeometry x="-0.6856" y="2" relative="1" as="geometry">
            <mxPoint x="-4" y="-10" as="offset" />
          </mxGeometry>
        </mxCell>
        <mxCell id="UZev7EF_9bcKUdjiLRx3-5" value="UserInstituição" style="rounded=1;whiteSpace=wrap;html=1;" parent="1" vertex="1">
          <mxGeometry x="779" y="189" width="120" height="60" as="geometry" />
        </mxCell>
        <mxCell id="UZev7EF_9bcKUdjiLRx3-6" value="Administrador" style="rounded=1;whiteSpace=wrap;html=1;" parent="1" vertex="1">
          <mxGeometry x="258" y="189" width="120" height="60" as="geometry" />
        </mxCell>
        <mxCell id="UZev7EF_9bcKUdjiLRx3-7" value="Gerencia" style="rhombus;whiteSpace=wrap;html=1;" parent="1" vertex="1">
          <mxGeometry x="488" y="179" width="80" height="80" as="geometry" />
        </mxCell>
        <mxCell id="UZev7EF_9bcKUdjiLRx3-8" value="" style="ellipse;fillColor=strokeColor;html=1;" parent="1" vertex="1">
          <mxGeometry x="200" y="179" width="20" height="20" as="geometry" />
        </mxCell>
        <mxCell id="UZev7EF_9bcKUdjiLRx3-10" value="" style="ellipse;" parent="1" vertex="1">
          <mxGeometry x="200" y="209" width="20" height="20" as="geometry" />
        </mxCell>
        <mxCell id="UZev7EF_9bcKUdjiLRx3-11" value="" style="ellipse;" parent="1" vertex="1">
          <mxGeometry x="200" y="239" width="20" height="20" as="geometry" />
        </mxCell>
        <mxCell id="UZev7EF_9bcKUdjiLRx3-13" value="idAluno" style="text;html=1;align=center;verticalAlign=middle;whiteSpace=wrap;rounded=0;" parent="1" vertex="1">
          <mxGeometry x="140" y="180" width="60" height="15" as="geometry" />
        </mxCell>
        <mxCell id="UZev7EF_9bcKUdjiLRx3-16" value="nome" style="text;html=1;align=center;verticalAlign=middle;whiteSpace=wrap;rounded=0;" parent="1" vertex="1">
          <mxGeometry x="144" y="212.5" width="60" height="15" as="geometry" />
        </mxCell>
        <mxCell id="UZev7EF_9bcKUdjiLRx3-18" value="tipo_user" style="text;html=1;align=center;verticalAlign=middle;whiteSpace=wrap;rounded=0;" parent="1" vertex="1">
          <mxGeometry x="130" y="241.5" width="70" height="15" as="geometry" />
        </mxCell>
        <mxCell id="UZev7EF_9bcKUdjiLRx3-22" value="" style="endArrow=none;html=1;rounded=1;exitX=1;exitY=0.5;exitDx=0;exitDy=0;entryX=0.063;entryY=-0.002;entryDx=0;entryDy=0;entryPerimeter=0;" parent="1" source="UZev7EF_9bcKUdjiLRx3-8" target="UZev7EF_9bcKUdjiLRx3-6" edge="1">
          <mxGeometry width="50" height="50" relative="1" as="geometry">
            <mxPoint x="220" y="189" as="sourcePoint" />
            <mxPoint x="298" y="199" as="targetPoint" />
          </mxGeometry>
        </mxCell>
        <mxCell id="UZev7EF_9bcKUdjiLRx3-23" value="" style="endArrow=none;html=1;rounded=1;exitX=1;exitY=0.5;exitDx=0;exitDy=0;entryX=0;entryY=0.5;entryDx=0;entryDy=0;edgeStyle=orthogonalEdgeStyle;curved=0;" parent="1" source="UZev7EF_9bcKUdjiLRx3-10" target="UZev7EF_9bcKUdjiLRx3-6" edge="1">
          <mxGeometry width="50" height="50" relative="1" as="geometry">
            <mxPoint x="230" y="169" as="sourcePoint" />
            <mxPoint x="298" y="199" as="targetPoint" />
          </mxGeometry>
        </mxCell>
        <mxCell id="UZev7EF_9bcKUdjiLRx3-24" value="" style="endArrow=none;html=1;rounded=1;exitX=1;exitY=0.5;exitDx=0;exitDy=0;entryX=0.056;entryY=1.003;entryDx=0;entryDy=0;entryPerimeter=0;" parent="1" source="UZev7EF_9bcKUdjiLRx3-11" target="UZev7EF_9bcKUdjiLRx3-6" edge="1">
          <mxGeometry width="50" height="50" relative="1" as="geometry">
            <mxPoint x="230" y="229" as="sourcePoint" />
            <mxPoint x="268" y="229" as="targetPoint" />
          </mxGeometry>
        </mxCell>
        <mxCell id="UZev7EF_9bcKUdjiLRx3-28" value="" style="ellipse;fillColor=strokeColor;html=1;" parent="1" vertex="1">
          <mxGeometry x="408" y="389" width="20" height="20" as="geometry" />
        </mxCell>
        <mxCell id="UZev7EF_9bcKUdjiLRx3-29" value="" style="ellipse;" parent="1" vertex="1">
          <mxGeometry x="408" y="419" width="20" height="20" as="geometry" />
        </mxCell>
        <mxCell id="UZev7EF_9bcKUdjiLRx3-30" value="" style="ellipse;" parent="1" vertex="1">
          <mxGeometry x="408" y="449" width="20" height="20" as="geometry" />
        </mxCell>
        <mxCell id="UZev7EF_9bcKUdjiLRx3-31" value="" style="ellipse;" parent="1" vertex="1">
          <mxGeometry x="408" y="479" width="20" height="20" as="geometry" />
        </mxCell>
        <mxCell id="UZev7EF_9bcKUdjiLRx3-32" value="" style="ellipse;" parent="1" vertex="1">
          <mxGeometry x="408" y="509" width="20" height="20" as="geometry" />
        </mxCell>
        <mxCell id="UZev7EF_9bcKUdjiLRx3-33" value="idAluno" style="text;html=1;align=center;verticalAlign=middle;whiteSpace=wrap;rounded=0;" parent="1" vertex="1">
          <mxGeometry x="348" y="391.5" width="60" height="15" as="geometry" />
        </mxCell>
        <mxCell id="UZev7EF_9bcKUdjiLRx3-34" value="nome" style="text;html=1;align=center;verticalAlign=middle;whiteSpace=wrap;rounded=0;" parent="1" vertex="1">
          <mxGeometry x="352" y="421.5" width="60" height="15" as="geometry" />
        </mxCell>
        <mxCell id="UZev7EF_9bcKUdjiLRx3-35" value="telefone" style="text;html=1;align=center;verticalAlign=middle;whiteSpace=wrap;rounded=0;" parent="1" vertex="1">
          <mxGeometry x="348" y="451.5" width="60" height="15" as="geometry" />
        </mxCell>
        <mxCell id="UZev7EF_9bcKUdjiLRx3-36" value="data_nascimento" style="text;html=1;align=center;verticalAlign=middle;whiteSpace=wrap;rounded=0;" parent="1" vertex="1">
          <mxGeometry x="298" y="482" width="110" height="15" as="geometry" />
        </mxCell>
        <mxCell id="UZev7EF_9bcKUdjiLRx3-37" value="tipo_user" style="text;html=1;align=center;verticalAlign=middle;whiteSpace=wrap;rounded=0;" parent="1" vertex="1">
          <mxGeometry x="338" y="512" width="70" height="15" as="geometry" />
        </mxCell>
        <mxCell id="UZev7EF_9bcKUdjiLRx3-38" value="" style="endArrow=none;html=1;rounded=1;exitX=1;exitY=0.5;exitDx=0;exitDy=0;entryX=0.25;entryY=0;entryDx=0;entryDy=0;edgeStyle=orthogonalEdgeStyle;curved=0;" parent="1" source="UZev7EF_9bcKUdjiLRx3-28" edge="1">
          <mxGeometry width="50" height="50" relative="1" as="geometry">
            <mxPoint x="576" y="409" as="sourcePoint" />
            <mxPoint x="496" y="429" as="targetPoint" />
          </mxGeometry>
        </mxCell>
        <mxCell id="UZev7EF_9bcKUdjiLRx3-39" value="" style="endArrow=none;html=1;rounded=1;exitX=1;exitY=0.5;exitDx=0;exitDy=0;entryX=0.06;entryY=0.003;entryDx=0;entryDy=0;entryPerimeter=0;" parent="1" source="UZev7EF_9bcKUdjiLRx3-29" target="UZev7EF_9bcKUdjiLRx3-1" edge="1">
          <mxGeometry width="50" height="50" relative="1" as="geometry">
            <mxPoint x="438" y="409" as="sourcePoint" />
            <mxPoint x="458" y="419" as="targetPoint" />
          </mxGeometry>
        </mxCell>
        <mxCell id="UZev7EF_9bcKUdjiLRx3-40" value="" style="endArrow=none;html=1;rounded=1;exitX=1;exitY=0.5;exitDx=0;exitDy=0;entryX=0;entryY=0.5;entryDx=0;entryDy=0;edgeStyle=orthogonalEdgeStyle;curved=0;" parent="1" source="UZev7EF_9bcKUdjiLRx3-30" target="UZev7EF_9bcKUdjiLRx3-1" edge="1">
          <mxGeometry width="50" height="50" relative="1" as="geometry">
            <mxPoint x="438" y="409" as="sourcePoint" />
            <mxPoint x="466" y="459" as="targetPoint" />
          </mxGeometry>
        </mxCell>
        <mxCell id="UZev7EF_9bcKUdjiLRx3-41" value="" style="endArrow=none;html=1;rounded=1;exitX=1;exitY=0.5;exitDx=0;exitDy=0;entryX=0.063;entryY=0.997;entryDx=0;entryDy=0;entryPerimeter=0;" parent="1" source="UZev7EF_9bcKUdjiLRx3-31" target="UZev7EF_9bcKUdjiLRx3-1" edge="1">
          <mxGeometry width="50" height="50" relative="1" as="geometry">
            <mxPoint x="438" y="469" as="sourcePoint" />
            <mxPoint x="466" y="489" as="targetPoint" />
          </mxGeometry>
        </mxCell>
        <mxCell id="UZev7EF_9bcKUdjiLRx3-42" value="" style="endArrow=none;html=1;rounded=1;exitX=1;exitY=0.5;exitDx=0;exitDy=0;edgeStyle=orthogonalEdgeStyle;curved=0;entryX=0.25;entryY=1;entryDx=0;entryDy=0;" parent="1" source="UZev7EF_9bcKUdjiLRx3-32" edge="1">
          <mxGeometry width="50" height="50" relative="1" as="geometry">
            <mxPoint x="438" y="409" as="sourcePoint" />
            <mxPoint x="496" y="489" as="targetPoint" />
          </mxGeometry>
        </mxCell>
        <mxCell id="UZev7EF_9bcKUdjiLRx3-43" value="" style="endArrow=none;html=1;rounded=1;exitX=0;exitY=0.5;exitDx=0;exitDy=0;entryX=1;entryY=0.5;entryDx=0;entryDy=0;" parent="1" source="UZev7EF_9bcKUdjiLRx3-7" target="UZev7EF_9bcKUdjiLRx3-6" edge="1">
          <mxGeometry width="50" height="50" relative="1" as="geometry">
            <mxPoint x="230" y="189" as="sourcePoint" />
            <mxPoint x="276" y="189" as="targetPoint" />
          </mxGeometry>
        </mxCell>
        <mxCell id="UZev7EF_9bcKUdjiLRx3-79" value="1" style="edgeLabel;html=1;align=center;verticalAlign=middle;resizable=0;points=[];" parent="UZev7EF_9bcKUdjiLRx3-43" vertex="1" connectable="0">
          <mxGeometry x="0.4909" y="-1" relative="1" as="geometry">
            <mxPoint x="-16" y="-10" as="offset" />
          </mxGeometry>
        </mxCell>
        <mxCell id="UZev7EF_9bcKUdjiLRx3-44" value="" style="endArrow=none;html=1;rounded=1;exitX=0.5;exitY=0;exitDx=0;exitDy=0;entryX=0.5;entryY=1;entryDx=0;entryDy=0;" parent="1" source="UZev7EF_9bcKUdjiLRx3-1" target="UZev7EF_9bcKUdjiLRx3-7" edge="1">
          <mxGeometry width="50" height="50" relative="1" as="geometry">
            <mxPoint x="498" y="239" as="sourcePoint" />
            <mxPoint x="388" y="239" as="targetPoint" />
          </mxGeometry>
        </mxCell>
        <mxCell id="UZev7EF_9bcKUdjiLRx3-81" value="1, N" style="edgeLabel;html=1;align=center;verticalAlign=middle;resizable=0;points=[];" parent="UZev7EF_9bcKUdjiLRx3-44" vertex="1" connectable="0">
          <mxGeometry x="-0.8039" y="-2" relative="1" as="geometry">
            <mxPoint x="16" y="4" as="offset" />
          </mxGeometry>
        </mxCell>
        <mxCell id="UZev7EF_9bcKUdjiLRx3-45" value="" style="endArrow=none;html=1;rounded=1;exitX=1;exitY=0.5;exitDx=0;exitDy=0;entryX=0;entryY=0.5;entryDx=0;entryDy=0;" parent="1" source="UZev7EF_9bcKUdjiLRx3-7" target="UZev7EF_9bcKUdjiLRx3-5" edge="1">
          <mxGeometry width="50" height="50" relative="1" as="geometry">
            <mxPoint x="538" y="439" as="sourcePoint" />
            <mxPoint x="538" y="279" as="targetPoint" />
          </mxGeometry>
        </mxCell>
        <mxCell id="UZev7EF_9bcKUdjiLRx3-80" value="1, N" style="edgeLabel;html=1;align=center;verticalAlign=middle;resizable=0;points=[];" parent="UZev7EF_9bcKUdjiLRx3-45" vertex="1" connectable="0">
          <mxGeometry x="0.7188" y="-1" relative="1" as="geometry">
            <mxPoint x="11" y="-13" as="offset" />
          </mxGeometry>
        </mxCell>
        <mxCell id="UZev7EF_9bcKUdjiLRx3-46" value="" style="endArrow=none;html=1;rounded=1;exitX=0.5;exitY=0;exitDx=0;exitDy=0;entryX=0.5;entryY=1;entryDx=0;entryDy=0;" parent="1" source="UZev7EF_9bcKUdjiLRx3-4" target="UZev7EF_9bcKUdjiLRx3-5" edge="1">
          <mxGeometry width="50" height="50" relative="1" as="geometry">
            <mxPoint x="578" y="229" as="sourcePoint" />
            <mxPoint x="789" y="229" as="targetPoint" />
          </mxGeometry>
        </mxCell>
        <mxCell id="UZev7EF_9bcKUdjiLRx3-85" value="1" style="edgeLabel;html=1;align=center;verticalAlign=middle;resizable=0;points=[];" parent="UZev7EF_9bcKUdjiLRx3-46" vertex="1" connectable="0">
          <mxGeometry x="0.4" relative="1" as="geometry">
            <mxPoint x="-12" y="-1" as="offset" />
          </mxGeometry>
        </mxCell>
        <mxCell id="UZev7EF_9bcKUdjiLRx3-47" value="" style="endArrow=none;html=1;rounded=1;exitX=0.5;exitY=0;exitDx=0;exitDy=0;entryX=0.5;entryY=1;entryDx=0;entryDy=0;" parent="1" source="UZev7EF_9bcKUdjiLRx3-3" target="UZev7EF_9bcKUdjiLRx3-4" edge="1">
          <mxGeometry width="50" height="50" relative="1" as="geometry">
            <mxPoint x="849" y="309" as="sourcePoint" />
            <mxPoint x="849" y="259" as="targetPoint" />
          </mxGeometry>
        </mxCell>
        <mxCell id="UZev7EF_9bcKUdjiLRx3-84" value="N" style="edgeLabel;html=1;align=center;verticalAlign=middle;resizable=0;points=[];" parent="UZev7EF_9bcKUdjiLRx3-47" vertex="1" connectable="0">
          <mxGeometry x="-0.4333" y="1" relative="1" as="geometry">
            <mxPoint x="-11" y="2" as="offset" />
          </mxGeometry>
        </mxCell>
        <mxCell id="UZev7EF_9bcKUdjiLRx3-48" value="" style="endArrow=none;html=1;rounded=1;exitX=1;exitY=0.5;exitDx=0;exitDy=0;entryX=0;entryY=0.5;entryDx=0;entryDy=0;" parent="1" source="UZev7EF_9bcKUdjiLRx3-2" target="UZev7EF_9bcKUdjiLRx3-3" edge="1">
          <mxGeometry width="50" height="50" relative="1" as="geometry">
            <mxPoint x="849" y="439" as="sourcePoint" />
            <mxPoint x="849" y="389" as="targetPoint" />
          </mxGeometry>
        </mxCell>
        <mxCell id="UZev7EF_9bcKUdjiLRx3-83" value="N" style="edgeLabel;html=1;align=center;verticalAlign=middle;resizable=0;points=[];" parent="UZev7EF_9bcKUdjiLRx3-48" vertex="1" connectable="0">
          <mxGeometry x="0.3684" y="-1" relative="1" as="geometry">
            <mxPoint x="2" y="-13" as="offset" />
          </mxGeometry>
        </mxCell>
        <mxCell id="UZev7EF_9bcKUdjiLRx3-49" value="" style="endArrow=none;html=1;rounded=1;exitX=1;exitY=0.5;exitDx=0;exitDy=0;entryX=0;entryY=0.5;entryDx=0;entryDy=0;" parent="1" source="UZev7EF_9bcKUdjiLRx3-1" target="UZev7EF_9bcKUdjiLRx3-2" edge="1">
          <mxGeometry width="50" height="50" relative="1" as="geometry">
            <mxPoint x="732" y="469" as="sourcePoint" />
            <mxPoint x="789" y="469" as="targetPoint" />
          </mxGeometry>
        </mxCell>
        <mxCell id="UZev7EF_9bcKUdjiLRx3-82" value="N" style="edgeLabel;html=1;align=center;verticalAlign=middle;resizable=0;points=[];" parent="UZev7EF_9bcKUdjiLRx3-49" vertex="1" connectable="0">
          <mxGeometry x="-0.5494" y="-2" relative="1" as="geometry">
            <mxPoint x="2" y="-13" as="offset" />
          </mxGeometry>
        </mxCell>
        <mxCell id="UZev7EF_9bcKUdjiLRx3-50" value="" style="ellipse;fillColor=strokeColor;html=1;" parent="1" vertex="1">
          <mxGeometry x="968" y="389" width="20" height="20" as="geometry" />
        </mxCell>
        <mxCell id="UZev7EF_9bcKUdjiLRx3-51" value="" style="ellipse;" parent="1" vertex="1">
          <mxGeometry x="968" y="419" width="20" height="20" as="geometry" />
        </mxCell>
        <mxCell id="UZev7EF_9bcKUdjiLRx3-52" value="" style="ellipse;" parent="1" vertex="1">
          <mxGeometry x="968" y="449" width="20" height="20" as="geometry" />
        </mxCell>
        <mxCell id="UZev7EF_9bcKUdjiLRx3-53" value="" style="ellipse;" parent="1" vertex="1">
          <mxGeometry x="968" y="479" width="20" height="20" as="geometry" />
        </mxCell>
        <mxCell id="UZev7EF_9bcKUdjiLRx3-54" value="" style="ellipse;" parent="1" vertex="1">
          <mxGeometry x="968" y="509" width="20" height="20" as="geometry" />
        </mxCell>
        <mxCell id="UZev7EF_9bcKUdjiLRx3-55" value="idBolsa" style="text;html=1;align=center;verticalAlign=middle;whiteSpace=wrap;rounded=0;" parent="1" vertex="1">
          <mxGeometry x="987" y="391.5" width="60" height="15" as="geometry" />
        </mxCell>
        <mxCell id="UZev7EF_9bcKUdjiLRx3-56" value="nome" style="text;html=1;align=center;verticalAlign=middle;whiteSpace=wrap;rounded=0;" parent="1" vertex="1">
          <mxGeometry x="981" y="421.5" width="60" height="15" as="geometry" />
        </mxCell>
        <mxCell id="UZev7EF_9bcKUdjiLRx3-57" value="desc_bolsa" style="text;html=1;align=center;verticalAlign=middle;whiteSpace=wrap;rounded=0;" parent="1" vertex="1">
          <mxGeometry x="996" y="451.5" width="60" height="15" as="geometry" />
        </mxCell>
        <mxCell id="UZev7EF_9bcKUdjiLRx3-58" value="tipo_bolsa" style="text;html=1;align=center;verticalAlign=middle;whiteSpace=wrap;rounded=0;" parent="1" vertex="1">
          <mxGeometry x="982" y="482" width="85" height="15" as="geometry" />
        </mxCell>
        <mxCell id="UZev7EF_9bcKUdjiLRx3-59" value="preco_bolsa" style="text;html=1;align=center;verticalAlign=middle;whiteSpace=wrap;rounded=0;" parent="1" vertex="1">
          <mxGeometry x="994" y="512" width="70" height="15" as="geometry" />
        </mxCell>
        <mxCell id="UZev7EF_9bcKUdjiLRx3-65" value="" style="endArrow=none;html=1;rounded=1;exitX=0;exitY=0.5;exitDx=0;exitDy=0;entryX=0.75;entryY=0;entryDx=0;entryDy=0;edgeStyle=orthogonalEdgeStyle;curved=0;" parent="1" source="UZev7EF_9bcKUdjiLRx3-50" target="UZev7EF_9bcKUdjiLRx3-3" edge="1">
          <mxGeometry width="50" height="50" relative="1" as="geometry">
            <mxPoint x="438" y="409" as="sourcePoint" />
            <mxPoint x="506" y="439" as="targetPoint" />
          </mxGeometry>
        </mxCell>
        <mxCell id="UZev7EF_9bcKUdjiLRx3-66" value="" style="endArrow=none;html=1;rounded=1;exitX=0;exitY=0.5;exitDx=0;exitDy=0;entryX=0.938;entryY=0;entryDx=0;entryDy=0;entryPerimeter=0;" parent="1" source="UZev7EF_9bcKUdjiLRx3-51" target="UZev7EF_9bcKUdjiLRx3-3" edge="1">
          <mxGeometry width="50" height="50" relative="1" as="geometry">
            <mxPoint x="438" y="439" as="sourcePoint" />
            <mxPoint x="485" y="439" as="targetPoint" />
          </mxGeometry>
        </mxCell>
        <mxCell id="UZev7EF_9bcKUdjiLRx3-67" value="" style="endArrow=none;html=1;rounded=1;exitX=0;exitY=0.5;exitDx=0;exitDy=0;entryX=1;entryY=0.5;entryDx=0;entryDy=0;" parent="1" source="UZev7EF_9bcKUdjiLRx3-52" target="UZev7EF_9bcKUdjiLRx3-3" edge="1">
          <mxGeometry width="50" height="50" relative="1" as="geometry">
            <mxPoint x="978" y="439" as="sourcePoint" />
            <mxPoint x="902" y="439" as="targetPoint" />
          </mxGeometry>
        </mxCell>
        <mxCell id="UZev7EF_9bcKUdjiLRx3-68" value="" style="endArrow=none;html=1;rounded=1;exitX=0;exitY=0.5;exitDx=0;exitDy=0;entryX=0.94;entryY=0.997;entryDx=0;entryDy=0;entryPerimeter=0;" parent="1" source="UZev7EF_9bcKUdjiLRx3-53" target="UZev7EF_9bcKUdjiLRx3-3" edge="1">
          <mxGeometry width="50" height="50" relative="1" as="geometry">
            <mxPoint x="978" y="469" as="sourcePoint" />
            <mxPoint x="909" y="469" as="targetPoint" />
          </mxGeometry>
        </mxCell>
        <mxCell id="UZev7EF_9bcKUdjiLRx3-69" value="" style="endArrow=none;html=1;rounded=1;exitX=0;exitY=0.5;exitDx=0;exitDy=0;entryX=0.75;entryY=1;entryDx=0;entryDy=0;edgeStyle=orthogonalEdgeStyle;curved=0;" parent="1" source="UZev7EF_9bcKUdjiLRx3-54" target="UZev7EF_9bcKUdjiLRx3-3" edge="1">
          <mxGeometry width="50" height="50" relative="1" as="geometry">
            <mxPoint x="978" y="409" as="sourcePoint" />
            <mxPoint x="879" y="439" as="targetPoint" />
          </mxGeometry>
        </mxCell>
        <mxCell id="UZev7EF_9bcKUdjiLRx3-70" value="" style="ellipse;fillColor=strokeColor;html=1;" parent="1" vertex="1">
          <mxGeometry x="1374" y="150" width="20" height="20" as="geometry" />
        </mxCell>
        <mxCell id="UZev7EF_9bcKUdjiLRx3-71" value="" style="ellipse;" parent="1" vertex="1">
          <mxGeometry x="1374" y="180" width="20" height="20" as="geometry" />
        </mxCell>
        <mxCell id="UZev7EF_9bcKUdjiLRx3-72" value="" style="ellipse;" parent="1" vertex="1">
          <mxGeometry x="1374" y="210" width="20" height="20" as="geometry" />
        </mxCell>
        <mxCell id="UZev7EF_9bcKUdjiLRx3-73" value="cnpj" style="text;html=1;align=center;verticalAlign=middle;whiteSpace=wrap;rounded=0;" parent="1" vertex="1">
          <mxGeometry x="1385" y="152.5" width="60" height="15" as="geometry" />
        </mxCell>
        <mxCell id="UZev7EF_9bcKUdjiLRx3-74" value="nome" style="text;html=1;align=center;verticalAlign=middle;whiteSpace=wrap;rounded=0;" parent="1" vertex="1">
          <mxGeometry x="1389" y="182.5" width="60" height="15" as="geometry" />
        </mxCell>
        <mxCell id="UZev7EF_9bcKUdjiLRx3-75" value="unidade" style="text;html=1;align=center;verticalAlign=middle;whiteSpace=wrap;rounded=0;" parent="1" vertex="1">
          <mxGeometry x="1396" y="212.5" width="60" height="15" as="geometry" />
        </mxCell>
        <mxCell id="LGmtJFAplZEheYw9YoZS-1" value="" style="ellipse;" parent="1" vertex="1">
          <mxGeometry x="1375" y="240" width="20" height="20" as="geometry" />
        </mxCell>
        <mxCell id="LGmtJFAplZEheYw9YoZS-2" value="" style="ellipse;" parent="1" vertex="1">
          <mxGeometry x="1375" y="270" width="20" height="20" as="geometry" />
        </mxCell>
        <mxCell id="LGmtJFAplZEheYw9YoZS-3" value="sigla" style="text;html=1;align=center;verticalAlign=middle;whiteSpace=wrap;rounded=0;" parent="1" vertex="1">
          <mxGeometry x="1386" y="242.5" width="60" height="15" as="geometry" />
        </mxCell>
        <mxCell id="LGmtJFAplZEheYw9YoZS-4" value="telefone" style="text;html=1;align=center;verticalAlign=middle;whiteSpace=wrap;rounded=0;" parent="1" vertex="1">
          <mxGeometry x="1395" y="272.5" width="60" height="15" as="geometry" />
        </mxCell>
        <mxCell id="LGmtJFAplZEheYw9YoZS-24" style="rounded=0;orthogonalLoop=1;jettySize=auto;html=1;exitX=0.5;exitY=1;exitDx=0;exitDy=0;entryX=0.515;entryY=0.005;entryDx=0;entryDy=0;endArrow=none;endFill=0;entryPerimeter=0;" parent="1" source="LGmtJFAplZEheYw9YoZS-5" target="UZev7EF_9bcKUdjiLRx3-5" edge="1">
          <mxGeometry relative="1" as="geometry" />
        </mxCell>
        <mxCell id="LGmtJFAplZEheYw9YoZS-5" value="" style="ellipse;" parent="1" vertex="1">
          <mxGeometry x="831" y="127" width="20" height="20" as="geometry" />
        </mxCell>
        <mxCell id="LGmtJFAplZEheYw9YoZS-6" value="" style="ellipse;" parent="1" vertex="1">
          <mxGeometry x="863" y="127" width="20" height="20" as="geometry" />
        </mxCell>
        <mxCell id="LGmtJFAplZEheYw9YoZS-7" value="emailInstitucional" style="text;html=1;align=center;verticalAlign=middle;whiteSpace=wrap;rounded=0;rotation=-60;" parent="1" vertex="1">
          <mxGeometry x="836" y="70" width="60" height="15" as="geometry" />
        </mxCell>
        <mxCell id="LGmtJFAplZEheYw9YoZS-8" value="senha" style="text;html=1;align=center;verticalAlign=middle;whiteSpace=wrap;rounded=0;rotation=-60;" parent="1" vertex="1">
          <mxGeometry x="856" y="97" width="60" height="15" as="geometry" />
        </mxCell>
        <mxCell id="LGmtJFAplZEheYw9YoZS-23" style="edgeStyle=orthogonalEdgeStyle;rounded=0;orthogonalLoop=1;jettySize=auto;html=1;exitX=0.5;exitY=1;exitDx=0;exitDy=0;entryX=0.25;entryY=0;entryDx=0;entryDy=0;endArrow=none;endFill=0;" parent="1" source="LGmtJFAplZEheYw9YoZS-9" target="UZev7EF_9bcKUdjiLRx3-5" edge="1">
          <mxGeometry relative="1" as="geometry" />
        </mxCell>
        <mxCell id="LGmtJFAplZEheYw9YoZS-9" value="" style="ellipse;fillColor=strokeColor;html=1;" parent="1" vertex="1">
          <mxGeometry x="799" y="127" width="20.5" height="20.5" as="geometry" />
        </mxCell>
        <mxCell id="LGmtJFAplZEheYw9YoZS-10" value="idUserInstituicao" style="text;html=1;align=center;verticalAlign=middle;whiteSpace=wrap;rounded=0;rotation=-60;" parent="1" vertex="1">
          <mxGeometry x="798" y="70" width="60" height="15" as="geometry" />
        </mxCell>
        <mxCell id="LGmtJFAplZEheYw9YoZS-17" style="rounded=0;orthogonalLoop=1;jettySize=auto;html=1;exitX=1;exitY=0.5;exitDx=0;exitDy=0;entryX=0;entryY=0.5;entryDx=0;entryDy=0;endArrow=none;endFill=0;" parent="1" source="LGmtJFAplZEheYw9YoZS-14" target="LGmtJFAplZEheYw9YoZS-15" edge="1">
          <mxGeometry relative="1" as="geometry" />
        </mxCell>
        <mxCell id="LGmtJFAplZEheYw9YoZS-26" value="1" style="edgeLabel;html=1;align=center;verticalAlign=middle;resizable=0;points=[];" parent="LGmtJFAplZEheYw9YoZS-17" vertex="1" connectable="0">
          <mxGeometry x="0.581" relative="1" as="geometry">
            <mxPoint x="2" y="-13" as="offset" />
          </mxGeometry>
        </mxCell>
        <mxCell id="LGmtJFAplZEheYw9YoZS-14" value="Gerencia" style="rhombus;whiteSpace=wrap;html=1;" parent="1" vertex="1">
          <mxGeometry x="1018" y="179.5" width="80" height="80" as="geometry" />
        </mxCell>
        <mxCell id="LGmtJFAplZEheYw9YoZS-18" style="edgeStyle=orthogonalEdgeStyle;rounded=1;orthogonalLoop=1;jettySize=auto;html=1;exitX=0.75;exitY=0;exitDx=0;exitDy=0;entryX=0;entryY=0.5;entryDx=0;entryDy=0;curved=0;endArrow=none;endFill=0;" parent="1" source="LGmtJFAplZEheYw9YoZS-15" target="UZev7EF_9bcKUdjiLRx3-70" edge="1">
          <mxGeometry relative="1" as="geometry" />
        </mxCell>
        <mxCell id="LGmtJFAplZEheYw9YoZS-19" style="rounded=0;orthogonalLoop=1;jettySize=auto;html=1;exitX=1;exitY=0.5;exitDx=0;exitDy=0;entryX=0;entryY=0.5;entryDx=0;entryDy=0;endArrow=none;endFill=0;" parent="1" source="LGmtJFAplZEheYw9YoZS-15" target="UZev7EF_9bcKUdjiLRx3-72" edge="1">
          <mxGeometry relative="1" as="geometry" />
        </mxCell>
        <mxCell id="LGmtJFAplZEheYw9YoZS-20" style="edgeStyle=orthogonalEdgeStyle;rounded=1;orthogonalLoop=1;jettySize=auto;html=1;exitX=0.75;exitY=1;exitDx=0;exitDy=0;entryX=0;entryY=0.5;entryDx=0;entryDy=0;curved=0;endArrow=none;endFill=0;" parent="1" source="LGmtJFAplZEheYw9YoZS-15" target="LGmtJFAplZEheYw9YoZS-2" edge="1">
          <mxGeometry relative="1" as="geometry" />
        </mxCell>
        <mxCell id="LGmtJFAplZEheYw9YoZS-15" value="Instituição" style="rounded=1;whiteSpace=wrap;html=1;" parent="1" vertex="1">
          <mxGeometry x="1188" y="190" width="120" height="60" as="geometry" />
        </mxCell>
        <mxCell id="LGmtJFAplZEheYw9YoZS-21" style="rounded=0;orthogonalLoop=1;jettySize=auto;html=1;exitX=1;exitY=0.5;exitDx=0;exitDy=0;entryX=0;entryY=0.5;entryDx=0;entryDy=0;endArrow=none;endFill=0;" parent="1" target="UZev7EF_9bcKUdjiLRx3-71" edge="1">
          <mxGeometry relative="1" as="geometry">
            <mxPoint x="1298" y="190" as="sourcePoint" />
            <mxPoint x="1359" y="190" as="targetPoint" />
          </mxGeometry>
        </mxCell>
        <mxCell id="LGmtJFAplZEheYw9YoZS-22" style="rounded=0;orthogonalLoop=1;jettySize=auto;html=1;exitX=1;exitY=0.5;exitDx=0;exitDy=0;entryX=0;entryY=0.5;entryDx=0;entryDy=0;endArrow=none;endFill=0;" parent="1" target="LGmtJFAplZEheYw9YoZS-1" edge="1">
          <mxGeometry relative="1" as="geometry">
            <mxPoint x="1288" y="250" as="sourcePoint" />
            <mxPoint x="1359" y="250" as="targetPoint" />
          </mxGeometry>
        </mxCell>
        <mxCell id="LGmtJFAplZEheYw9YoZS-25" style="rounded=0;orthogonalLoop=1;jettySize=auto;html=1;exitX=0.5;exitY=1;exitDx=0;exitDy=0;entryX=0.783;entryY=0;entryDx=0;entryDy=0;entryPerimeter=0;endArrow=none;endFill=0;" parent="1" source="LGmtJFAplZEheYw9YoZS-6" target="UZev7EF_9bcKUdjiLRx3-5" edge="1">
          <mxGeometry relative="1" as="geometry" />
        </mxCell>
      </root>
    </mxGraphModel>
  </diagram>
</mxfile>
